<svg width="180" height="37" fill="none" xmlns="http://www.w3.org/2000/svg"><path d="M12.312 27.64c-2.325 0-4.363-.565-6.112-1.696-1.75-1.13-3.104-2.71-4.064-4.736C1.197 19.181.728 16.845.728 14.2c0-2.645.501-4.981 1.504-7.008 1.003-2.027 2.4-3.605 4.192-4.736C8.237 1.326 10.307.76 12.632.76c2.197 0 4.053.555 5.568 1.664L20.152.76h.672v7.936h-.672l-2.112-5.28c-1.536-1.28-3.339-1.92-5.408-1.92-1.493 0-2.837.384-4.032 1.152-1.173.768-2.101 1.888-2.784 3.36-.661 1.472-.992 3.221-.992 5.248v5.856c0 2.027.31 3.776.928 5.248.64 1.472 1.515 2.603 2.624 3.392 1.13.768 2.443 1.152 3.936 1.152 1.835 0 3.253-.565 4.256-1.696 1.024-1.13 1.536-2.645 1.536-4.544v-2.976l-2.976-.448v-.704h9.568v.704l-2.976.448v2.976c0 1.216-.33 2.357-.992 3.424-.661 1.045-1.696 1.899-3.104 2.56-1.408.661-3.179.992-5.312.992Zm22.07-.32c-1.535 0-2.933-.352-4.191-1.056-1.259-.725-2.262-1.739-3.008-3.04-.726-1.323-1.088-2.827-1.088-4.512 0-1.685.362-3.179 1.088-4.48.746-1.301 1.75-2.304 3.008-3.008 1.258-.725 2.656-1.088 4.192-1.088s2.933.363 4.192 1.088c1.258.704 2.25 1.707 2.976 3.008.746 1.301 1.12 2.795 1.12 4.48 0 1.685-.374 3.19-1.12 4.512-.726 1.301-1.718 2.315-2.976 3.04-1.259.704-2.656 1.056-4.192 1.056Zm0-.704c1.58 0 2.763-.576 3.553-1.728.81-1.152 1.216-2.677 1.216-4.576v-3.2c0-1.899-.406-3.413-1.216-4.544-.79-1.152-1.974-1.728-3.552-1.728-1.579 0-2.774.576-3.584 1.728-.79 1.13-1.184 2.645-1.184 4.544v3.2c0 1.899.394 3.424 1.184 4.576.81 1.152 2.005 1.728 3.584 1.728Zm10.29.384v-.64l2.4-.32V2.36l-2.4-.32V1.4h5.6v24.64l2.24.32V27h-7.84Zm17.54.32c-1.515 0-2.849-.352-4-1.056-1.153-.725-2.049-1.728-2.689-3.008-.64-1.301-.96-2.816-.96-4.544 0-1.728.32-3.232.96-4.512.64-1.301 1.536-2.304 2.688-3.008 1.153-.704 2.486-1.056 4-1.056 1.238 0 2.315.33 3.233.992.917.64 1.642 1.525 2.175 2.656V2.36l-2.24-.32V1.4h5.44v24.64l2.24.32V27h-5.44v-3.328c-.533 1.13-1.258 2.027-2.175 2.688-.918.64-1.995.96-3.233.96Zm.32-.8a4.25 4.25 0 0 0 2.528-.8 5.871 5.871 0 0 0 1.823-2.176c.47-.917.715-1.91.737-2.976v-3.68a6.536 6.536 0 0 0-.737-2.944c-.447-.917-1.055-1.643-1.823-2.176a4.133 4.133 0 0 0-2.529-.832c-2.965 0-4.447 2.059-4.447 6.176v3.2c0 4.139 1.482 6.208 4.447 6.208Zm14.963 9.824c-1.11 0-2.006-.277-2.688-.832-.683-.555-1.024-1.301-1.024-2.24 0-.64.181-1.163.544-1.568a1.915 1.915 0 0 1 1.408-.576c.405 0 .768.085 1.088.256.32.17.576.427.768.768-.32.448-.48.917-.48 1.408 0 .427.138.779.416 1.056.277.277.63.416 1.056.416.512 0 .95-.17 1.312-.512.384-.341.725-.939 1.024-1.792l1.92-5.504-7.424-15.808-2.144-.32v-.64h7.968v.64l-2.24.384 5.344 11.424 3.808-11.008-2.752-.8v-.64h5.76v.64l-2.176.8-7.168 20.832c-.448 1.259-.992 2.176-1.632 2.752-.619.576-1.515.864-2.688.864Z" fill="#E1A661"/><path d="M109.924 27.64c-1.984 0-3.936-.565-5.856-1.696l-2.72 1.376h-.704v-8.224h.704l2.752 5.952c1.771 1.259 3.797 1.888 6.08 1.888 1.877 0 3.424-.49 4.64-1.472 1.237-1.003 1.856-2.4 1.856-4.192 0-1.301-.395-2.325-1.184-3.072-.789-.768-2.069-1.376-3.84-1.824L106.34 15c-1.856-.49-3.253-1.323-4.192-2.496-.939-1.195-1.408-2.603-1.408-4.224 0-1.472.288-2.773.864-3.904a6.225 6.225 0 0 1 2.592-2.656c1.131-.64 2.475-.96 4.032-.96 1.941 0 3.68.33 5.216.992L115.78.76h.704v6.528h-.704l-2.304-4.672c-1.6-.768-3.339-1.152-5.216-1.152-1.856 0-3.317.48-4.384 1.44-1.067.939-1.6 2.187-1.6 3.744 0 1.152.373 2.059 1.12 2.72.768.661 1.888 1.184 3.36 1.568l5.728 1.504c1.856.47 3.232 1.28 4.128 2.432.917 1.13 1.376 2.859 1.376 5.184 0 2.368-.736 4.224-2.208 5.568-1.451 1.344-3.403 2.016-5.856 2.016Zm17.377-.32c-1.408 0-2.539-.352-3.392-1.056-.832-.704-1.248-1.824-1.248-3.36v-11.52l-2.272-.32v-.64h2.272V7.768l3.2-.8v3.456h4.16v.64l-4.16.32V22.84c0 2.261.81 3.392 2.432 3.392.341 0 .661-.053.96-.16.32-.107.565-.213.736-.32.192-.107.309-.181.352-.224l.416.512c-.96.853-2.112 1.28-3.456 1.28Zm12.301 0c-1.536 0-2.934-.352-4.192-1.056-1.259-.725-2.262-1.739-3.008-3.04-.726-1.323-1.088-2.827-1.088-4.512 0-1.685.362-3.179 1.088-4.48.746-1.301 1.749-2.304 3.008-3.008 1.258-.725 2.656-1.088 4.192-1.088s2.933.363 4.192 1.088c1.258.704 2.25 1.707 2.976 3.008.746 1.301 1.12 2.795 1.12 4.48 0 1.685-.374 3.19-1.12 4.512-.726 1.301-1.718 2.315-2.976 3.04-1.259.704-2.656 1.056-4.192 1.056Zm0-.704c1.578 0 2.762-.576 3.552-1.728.81-1.152 1.216-2.677 1.216-4.576v-3.2c0-1.899-.406-3.413-1.216-4.544-.79-1.152-1.974-1.728-3.552-1.728-1.579 0-2.774.576-3.584 1.728-.79 1.13-1.184 2.645-1.184 4.544v3.2c0 1.899.394 3.424 1.184 4.576.81 1.152 2.005 1.728 3.584 1.728Zm10.512-.256 2.24-.32V11.384l-2.24-.32v-.64h5.44v2.464c1.344-1.835 2.859-2.752 4.544-2.752.811 0 1.525.213 2.144.64.619.405.928.992.928 1.76 0 .555-.181 1.024-.544 1.408-.363.363-.843.544-1.44.544a2.032 2.032 0 0 1-1.664-.8c.235-.299.352-.619.352-.96 0-.363-.128-.65-.384-.864-.235-.235-.555-.352-.96-.352-.448 0-.907.213-1.376.64-.469.405-1.003 1.045-1.6 1.92V26.04l2.56.32V27h-8v-.64Zm22.804.96c-1.579 0-3.008-.352-4.288-1.056a7.997 7.997 0 0 1-3.04-3.04c-.747-1.301-1.12-2.805-1.12-4.512 0-1.707.362-3.2 1.088-4.48.746-1.301 1.738-2.304 2.976-3.008 1.258-.725 2.656-1.088 4.192-1.088 1.344 0 2.549.299 3.616.896a6.39 6.39 0 0 1 2.496 2.496c.597 1.045.906 2.25.928 3.616H167.99v3.168c0 1.877.416 3.403 1.248 4.576.853 1.152 2.08 1.728 3.68 1.728 1.472 0 2.773-.416 3.904-1.248 1.13-.832 1.824-1.91 2.08-3.232h.736c-.299 1.579-1.056 2.837-2.272 3.776-1.216.939-2.699 1.408-4.448 1.408Zm3.328-10.976c0-1.856-.288-3.232-.864-4.128-.576-.917-1.472-1.376-2.688-1.376-1.43 0-2.539.501-3.328 1.504-.79 1.003-1.238 2.336-1.344 4h8.224Z" fill="#303030"/></svg>