<svg width="833" height="643" fill="none" xmlns="http://www.w3.org/2000/svg"><path opacity=".8" fill-rule="evenodd" clip-rule="evenodd" d="M177.071 0h-.092l-.086.033L95.118 31.3l-.078.03-.063.052L.374 109.951l-.374.31.3.383 415.183 529.579v2.298l.894-1.14.007-.009.008.009.893 1.14v-2.298l415.184-529.579.3-.383-.374-.31-94.603-78.569-.064-.053-.077-.029L655.876.033 655.789 0H177.071Zm238.912 1H184.771l231.613 30.21L647.998 1H415.983Zm1.302 179.491V33.041l142.72 77.273-142.72 70.177Zm0 456.714V182.188h218.376L417.285 637.205ZM415.483 33.04l-142.719 77.274 142.719 70.177V33.041Zm0 149.148H197.107l218.376 455.017V182.188ZM98.003 31.267l79.129-30.255 231.954 30.255H98.004Zm-.356 1h317.164l-143.158 77.511L97.647 32.267ZM2.078 109.835h267.245L95.377 32.35l-93.3 77.485Zm412.274 527.324L2.168 111.405l193.782 70.683 218.402 455.071ZM197.568 181.188h217.067l-142.87-70.251-74.197 70.251ZM3.523 110.835l192.67 70.278 74.226-70.278H3.523Zm731.242-79.568L655.637 1.012 423.683 31.267h311.082Zm.356 1H417.957l143.159 77.511 174.005-77.511Zm95.569 77.568H563.446L737.392 32.35l93.298 77.485ZM418.416 637.159l412.185-525.754-193.782 70.683-218.403 455.071Zm216.785-455.971H418.134l142.869-70.251 74.198 70.251Zm194.044-70.353-192.67 70.278-74.225-70.278h266.895Z" fill="#EEE"/></svg>