<svg width="109" height="17" fill="none" xmlns="http://www.w3.org/2000/svg"><path d="m8.5 0 2.298 5.337 5.786.536-4.365 3.835 1.277 5.669L8.5 12.41l-4.996 2.967L4.78 9.708.416 5.873l5.786-.536L8.5 0Zm23 0 2.298 5.337 5.786.536-4.365 3.835 1.277 5.669L31.5 12.41l-4.996 2.967 1.277-5.669-4.365-3.835 5.786-.536L31.5 0Zm23 0 2.298 5.337 5.786.536-4.365 3.835 1.277 5.669L54.5 12.41l-4.996 2.967 1.277-5.669-4.365-3.835 5.786-.536L54.5 0Zm23 0 2.298 5.337 5.786.536-4.365 3.835 1.277 5.669L77.5 12.41l-4.996 2.967 1.277-5.669-4.365-3.835 5.786-.536L77.5 0Z" fill="#E1A661"/><path d="m100.5 1.264 1.839 4.27.117.273.296.028 4.63.429-3.493 3.069-.223.196.065.29 1.022 4.535-3.998-2.374-.255-.152-.255.152-3.998 2.374 1.022-4.536.065-.29-.223-.195-3.493-3.069 4.63-.43.296-.027.117-.272 1.839-4.27Z" stroke="#E1A661"/></svg>