<svg width="20" height="20" fill="none" xmlns="http://www.w3.org/2000/svg"><path fill-rule="evenodd" clip-rule="evenodd" d="M11.667 4.583a2.917 2.917 0 1 1 .837 2.045l-4.276 2.59a2.92 2.92 0 0 1 .02 1.487l4.353 2.572a2.917 2.917 0 1 1-.848 1.434L7.398 12.14a2.917 2.917 0 1 1-.059-4.332l4.382-2.654a2.936 2.936 0 0 1-.055-.57Zm2.916-1.25a1.25 1.25 0 1 0 0 2.5 1.25 1.25 0 0 0 0-2.5ZM5.417 8.75a1.25 1.25 0 1 0 0 2.5 1.25 1.25 0 0 0 0-2.5Zm9.166 5.417a1.25 1.25 0 1 0 0 2.5 1.25 1.25 0 0 0 0-2.5Z" fill="#303030"/></svg>