<svg width="20" height="20" fill="none" xmlns="http://www.w3.org/2000/svg"><path d="M10 17.5c-.538-.477-1.145-.973-1.788-1.5h-.008c-2.262-1.85-4.827-3.943-5.959-6.452A6.185 6.185 0 0 1 1.667 7 4.492 4.492 0 0 1 6.25 2.5a5.132 5.132 0 0 1 2.773.82c.364.235.692.52.977.847a4.82 4.82 0 0 1 .977-.848A5.127 5.127 0 0 1 13.75 2.5 4.492 4.492 0 0 1 18.333 7a6.186 6.186 0 0 1-.578 2.552c-1.133 2.509-3.696 4.601-5.958 6.448l-.009.007c-.643.524-1.25 1.02-1.787 1.5L10 17.5ZM6.25 4.167a2.946 2.946 0 0 0-2.083.826A2.785 2.785 0 0 0 3.333 7c.01.642.155 1.275.427 1.857a10.264 10.264 0 0 0 2.13 2.893c.827.833 1.777 1.64 2.598 2.318l.691.566.146.12.675.554.01-.01.006-.004h.005l.007-.006h.009l.015-.012.034-.028.006-.005.009-.006h.005l.007-.007.554-.454.145-.12c.234-.19.466-.38.693-.567.822-.678 1.772-1.484 2.598-2.322a10.25 10.25 0 0 0 2.131-2.892A4.531 4.531 0 0 0 16.667 7a2.786 2.786 0 0 0-.834-2 2.946 2.946 0 0 0-2.083-.833 3.323 3.323 0 0 0-2.492 1.092L10 6.71 8.742 5.26A3.323 3.323 0 0 0 6.25 4.167Z" fill="#303030"/></svg>