<svg width="24" height="24" fill="none" xmlns="http://www.w3.org/2000/svg"><path fill-rule="evenodd" clip-rule="evenodd" d="M13.004 3.5a1 1 0 1 0-2 0v2.05c-.96.096-1.876.327-2.73.658l-.83-1.158A1 1 0 1 0 5.82 6.215l.639.892c-.531.325-1.024.686-1.473 1.07C3.248 9.666 2 11.668 2 13.5c0 1.832 1.248 3.834 2.985 5.323C6.762 20.345 9.235 21.5 12 21.5c2.764 0 5.238-1.154 7.015-2.676C20.752 17.335 22 15.333 22 13.5c0-1.833-1.248-3.836-2.985-5.324-.33-.283-.684-.552-1.06-.804l.67-.934A1 1 0 1 0 17 5.273L16.192 6.4a10.556 10.556 0 0 0-3.188-.85V3.5ZM12 9.5a4 4 0 1 0 0 8 4 4 0 0 0 0-8Z" fill="#979797"/></svg>